# xmcd CD database file
# Copyright (C) 1995-1998 Ti Kan
#
# Track frame offsets:
#	150
#	12197
#	25555
#	34660
#	42665
#	50245
#	64780
#	74615
#	83770
#	96655
#	103215
#	110515
#	120875
#	125735
#	133795
#	138855
#
# Disc length: 2069 seconds
#
# Revision: 1
# Processed by: cddbd v1.4PL0 Copyright (c) Steve Scherf et al.
# Submitted via: CDex 1.30Release
#
DISCID=e8081310
DTITLE=Gene Autry with the Legendary Singing Groups of the West - With the L
DTITLE=egendary Singing Groups of the West
DYEAR=2000
DGENRE=Country
TTITLE0=Silent Trails
TTITLE1=Wild and Wooly West
TTITLE2=Yours
TTITLE3=That's My Home
TTITLE4=Rancho Pillow
TTITLE5=The Martins and the Coys
TTITLE6=Old Pinto
TTITLE7=The Cowboy
TTITLE8=The Dude Ranch Cowhands
TTITLE9=Somebody Else is Taking My Place
TTITLE10=Great Granddad
TTITLE11=The Old Home Place
TTITLE12=Shame on You
TTITLE13=Cowboy Blues
TTITLE14=Roll Wagon, Roll
TTITLE15=Nobody's Darlin But Mine
EXTD=YEAR: 2000 ID3G:   2
EXTT0=
EXTT1=
EXTT2=
EXTT3=
EXTT4=
EXTT5=
EXTT6=
EXTT7=
EXTT8=
EXTT9=
EXTT10=
EXTT11=
EXTT12=
EXTT13=
EXTT14=
EXTT15=
PLAYORDER=
